<svg xmlns="http://www.w3.org/2000/svg" width="1200" height="680" viewBox="0 0 1200 680">
  <defs>
    <linearGradient id="bg" x1="0" y1="0" x2="1" y2="1">
      <stop offset="0" stop-color="#0a0f1a"/>
      <stop offset="1" stop-color="#060a12"/>
    </linearGradient>
  </defs>
  <rect width="1200" height="680" fill="url(#bg)"/>
  <rect x="40" y="40" width="1120" height="600" rx="22" fill="#0d1322" stroke="#1e3a5f" stroke-width="2"/>
  <text x="80" y="95" font-family="ui-monospace, SFMono-Regular, Menlo, Monaco, Consolas, 'Liberation Mono', 'Courier New', monospace" font-size="28" fill="#d4dced">
    Queen Califia SOC Dashboard (Preview)
  </text>
  <text x="80" y="135" font-family="ui-sans-serif, system-ui, -apple-system, Segoe UI, Roboto" font-size="16" fill="#7e92b0">
    Real screenshot comes from your running instance — this SVG is a repo-safe placeholder.
  </text>

  <rect x="80" y="170" width="1040" height="90" rx="16" fill="#111b2e" stroke="#151f35"/>
  <text x="105" y="215" font-family="ui-sans-serif, system-ui" font-size="16" fill="#d4dced">Global Search</text>
  <rect x="260" y="192" width="520" height="44" rx="12" fill="#0a0f1a" stroke="#2563eb"/>
  <text x="278" y="220" font-family="ui-monospace, SFMono-Regular, Menlo, Monaco, Consolas" font-size="14" fill="#4a5e7a">IOC / IP / hostname / incident-id</text>
  <rect x="810" y="192" width="140" height="44" rx="12" fill="#0a0f1a" stroke="#151f35"/>
  <text x="830" y="220" font-family="ui-sans-serif, system-ui" font-size="14" fill="#7e92b0">Severity</text>
  <rect x="970" y="192" width="150" height="44" rx="12" fill="#0a0f1a" stroke="#151f35"/>
  <text x="990" y="220" font-family="ui-sans-serif, system-ui" font-size="14" fill="#7e92b0">Time Window</text>

  <rect x="80" y="280" width="740" height="330" rx="16" fill="#111b2e" stroke="#151f35"/>
  <text x="105" y="320" font-family="ui-sans-serif, system-ui" font-size="18" fill="#d4dced">Incidents</text>
  <text x="105" y="350" font-family="ui-sans-serif, system-ui" font-size="14" fill="#7e92b0">MTTD / MTTR • Lifecycle steps • Actions</text>

  <rect x="840" y="280" width="280" height="330" rx="16" fill="#111b2e" stroke="#151f35"/>
  <text x="860" y="320" font-family="ui-sans-serif, system-ui" font-size="18" fill="#d4dced">Action Center</text>
  <text x="860" y="350" font-family="ui-sans-serif, system-ui" font-size="14" fill="#7e92b0">Pending approvals • Failed jobs • Degraded mode</text>

  <rect x="860" y="380" width="240" height="58" rx="14" fill="#0a0f1a" stroke="#dc2626"/>
  <text x="880" y="415" font-family="ui-sans-serif, system-ui" font-size="14" fill="#d4dced">2 approvals pending</text>

  <rect x="860" y="460" width="240" height="58" rx="14" fill="#0a0f1a" stroke="#2563eb"/>
  <text x="880" y="495" font-family="ui-sans-serif, system-ui" font-size="14" fill="#d4dced">Export incident JSON</text>
</svg>
